My.Last.5.Girlfriends.2009.DVDRip.XviD.Feel-Free

After his latest failed relationship, Duncan has hit emotional rock bottom. He just can't understand what, or who, has caused all of his relationships to fail. Was it something he didΓΓé¼ª or didn't do? In a final attempt to find out where it all went wrong, Duncan takes a ride through the memories of his last five relationships. He's pretended not to care about ex-boyfriends that haven't quite disappeared, disastrously attempted to give fashion advice, and even been the first to utter those three special words nothing seems to work out, but that's all about to change.

Genre:Comedy
Language:English  http://www.imdb.com/title/tt1050002/
Source:DVD
Subtitles: ROMANA
 
http://www.starshare.ro/bitbucket/My.Last.5.Girlfriends.2009.DVDRip.XviD.Feel-Free.avi_thumbs_%5B2010.09.03_20.51.58%5D.jpg

General
Complete name :My.Last.5.Girlfriends.2009.DVDRip.XviD.Feel-Free
Format : AVI
Format/Info : Audio Video Interleave
File size : 912 MiB
Duration : 1h 23mn
Overall bit rate : 1 531 Kbps
Video #0
Codec ID : XVID
Codec ID/Hint : XviD
Duration : 1h 23mn
Bit rate : 1 265 Kbps
Width : 652 pixels
Height : 352 pixels
Display aspect ratio : 1.852
Frame rate : 25.000 fps
Resolution : 24 bits
Colorimetry : 4:2:0
Scan type : Progressive
Bits/(Pixel*Frame) : 0.220
Stream size : 754 MiB (83%)
Writing library : XviD 1.2.1 (UTC 2008-12-04)
Audio #1
ID : 1
Format : AC-3
Format/Info : Audio Coding 3
Codec ID : 2000
Duration : 1h 23mn
Bit rate mode : Constant
Bit rate : 256 Kbps
Channel(s) : 2 channels
Channel positions : L R
Sampling rate : 48.0 KHz
Stream size : 153 MiB (17%)
Alignment : Split accross interleaves
Interleave, duration : 40 ms (1.00 video frame)
Interleave, preload duration : 500 ms